<svg enable-background="new 0 0 2000 1000" viewBox="0 0 2000 1000" xmlns="http://www.w3.org/2000/svg"><text fill="#385078" font-family="'Arial-BoldMT'" font-size="370" transform="translate(1221.4037 491.2199)">db</text><text fill="#8d2828" font-family="'Arial-BoldItalicMT'" font-size="370" transform="translate(232.6812 491.2199)">Row</text><path d="m1651.9 661.3c-38.8 11.8-153.8 71.6-229.9 74.3-3.7.1-7.4-.8-11.1-.8-54.5 0-151.6-29.8-196.3-54.2-50.5-27.6-96.5-32.9-140-33.7-37.2-.8-61.5 11.6-94.7 25.5-21.7 9.1-31.4 13.3-41.4 27.8l-21.6-16.9c11.1-17.4 31.3-29.8 52.2-39.1 27.5-12.3 73.3-28 112.7-27.2 44.7.9 65.5 7.8 110.7 26.9 49.4 20.9 170.1 65.8 227.3 63.8 74.8-2.6 157-43.2 195.3-54.9 17.2-5.2 29.7-9 37.2-9.7"/><path d="m1411 826.2c-48.1 0-79.9-16.4-101.7-26.2-22.8-10.3-80.3-24.2-134.7-24.2-42.3 0-66.4 12.9-96.7 21.3-26.1 7.3-50.7 19.2-75.5 18.5-38.3-1.1-68-22.2-99.4-39.3-38.3-20.8-77.9-35.1-138-32.2-67.6 3.3-77.3 15.9-111.6 31.8-21.1 9.7-39.2 18.1-57.2 19.2-28.9 1.7-50.7 1.8-86.9-9.7-20.7-6.6-90.8-40.8-125.9-46.6-48.2-8.1-142.4 11.5-143.5 11.9l-.5-16.7c1.2-.4 36.7-9.3 76.3-16.3 0 0 49.8-6.8 99.2 5.9 34.8 8.9 73.6 31.3 94.4 37.9 35.1 11.2 59.3 14 86.3 12.3 16-1 32.5-10.6 53.5-20.3 33.3-15.4 45.9-34.5 115.5-37.9 63-3 105.7 23.2 143.4 43.6 30.3 16.4 59 40 94.8 41 23.3.7 46.1-11.8 72.5-19.2 31-8.6 55.7-25.7 99.5-25.7 56.6 0 115.2 17.4 139 28.1 23.7 10.7 55.4 24.9 110.3 23 76.4-2.7 150.6-29.7 194.9-45.9 20.3-7.4 35-12.7 43-13.4l.8 13.3c-6.6.5-21.5 5.9-40.3 12.8-44.9 16.4-120.1 49.9-198.1 52.7-4.9.2-9.3.3-13.4.3z"/><path d="m1026.1 760.3c-46.8 0-94.3-32.7-120.5-53.9-3.4-2.8-26.3-20.5-28.4-22-29.5-22.5-84.9-35.4-129.5-33.7-77.6 2.9-77 17.2-114.3 35-22.7 10.9-56.3 20.3-76.7 21.5-33 2-64.7-13.8-96.4-28.1-22.6-10.2-16-9.7-55.5-19.8-104.3-26.8-166.8 19.7-168.2 20.2l.2-27.1c.4-.1 35.3-18.9 83.4-27.2 28.6-4.9 55.9-10.9 100.3 3.4 22.1 7.1 36.6 15.5 53.6 25.7 22.1 13.3 52.1 32 82.9 30.1 18.1-1.1 35.8-2.6 58.3-13.4 36.2-17.3 52.8-46.1 132.9-49.1 47.1-1.7 88.7 13.8 117.1 25.6 18.7 7.8 45 27.7 48.6 30.6 27.8 22.6 91.8 69.1 130.3 51.1 27.4-12.8 65-6 66.5-5.9l-.5 13.2c-.5 0-24.5-.6-40.4 4.8-10.6 3.7-32.8 19-43.7 19z"/><path d="m1402.8 645.2c-54.5 0-143.6-23.8-188.3-48.2-50.5-27.6-96.5-32.9-140-33.7-37.2-.8-55.5 2.6-88.7 16.5-21.7 9.1-41.4 20.3-51.4 34.8l-30.6-22.9c11.1-17.4 51.3-32.8 72.2-42.1 27.5-12.3 66.3-17 105.7-16.2 44.7.9 65.5 7.8 110.7 26.9 49.4 20.9 164.1 62.8 221.3 60.8 74.8-2.6 163-40.2 201.3-51.9 17.2-5.2 29.7-9 37.2-9.7l.8 13c-6.5.5-19.1 6.4-35.1 11.3-38.8 11.8-127.8 59.6-203.9 62.3-3.8.1-7.5-.9-11.2-.9z"/><path d="m1026.1 670.8c-46.8 0-94.3-26.7-120.5-47.9-3.4-2.8-26.3-20.5-28.4-22-29.5-22.5-84.9-35.4-129.5-33.7-77.6 2.9-77 17.2-114.3 35-22.7 10.9-56.3 20.3-76.7 21.5-33 2-63.7-16.8-95.4-31.1-22.6-10.2-10-6.7-49.5-16.8-104.3-26.8-173.8 20.7-175.2 21.2l.2-22.1c.4-.1 40.3-25.9 88.4-34.2 28.6-4.9 38.4-4.9 79.9 4.4 36.2 8.1 46.3 16.5 68.9 27.3 23.3 11.1 52.3 33.5 83.1 31.6 18.1-1.1 35.8-5.6 58.3-16.4 36.2-17.3 52.8-46.1 132.9-49.1 47.1-1.7 88.7 13.8 117.1 25.6 18.7 7.8 45 27.7 48.6 30.6 27.8 22.6 91.8 69.1 130.3 51.1 27.4-12.8 65-6 66.5-5.9l-.5 8.2c-.5 0-26.5 2.4-42.4 7.8-10.7 3.5-30.9 14.9-41.8 14.9z"/><path d="m994.1 738.9c30.3 7.7 36-3.2 50.6-5.9 14-36.4 25.4-58.6 25.3-68.1-.2-21-13.3-29.8-7-39.6 6.4-9.8 184.8-401.1 182.2-407.3s-20.4-12-26.7-9.7-193 404.2-193 404.2-23.5-1.9-39.5 8.7c-15.8 10.4-40.6 50.3-55.6 81.7 20.1 13.8 45.1 31.3 63.7 36z" fill="#fff" stroke="#000" stroke-miterlimit="10" stroke-width="16"/></svg>